<?xml version="1.0" encoding="UTF-8"?>
<svg version="1.1" xmlns="http://www.w3.org/2000/svg" width="863" height="114">
<path d="M0 0 C1.12591553 0.00523682 2.25183105 0.01047363 3.41186523 0.01586914 C4.50571533 0.0183667 5.59956543 0.02086426 6.7265625 0.0234375 C8.82729126 0.03709351 8.82729126 0.03709351 10.97045898 0.05102539 C17.62202148 0.08196289 17.62202148 0.08196289 24.40795898 0.11352539 C24.40795898 11.99352539 24.40795898 23.87352539 24.40795898 36.11352539 C36.28795898 36.11352539 48.16795898 36.11352539 60.40795898 36.11352539 C60.40795898 24.23352539 60.40795898 12.35352539 60.40795898 0.11352539 C69.31795898 0.11352539 78.22795898 0.11352539 87.40795898 0.11352539 C87.40795898 31.79352539 87.40795898 63.47352539 87.40795898 96.11352539 C78.49795898 96.11352539 69.58795898 96.11352539 60.40795898 96.11352539 C60.40795898 83.90352539 60.40795898 71.69352539 60.40795898 59.11352539 C48.52795898 59.11352539 36.64795898 59.11352539 24.40795898 59.11352539 C24.40795898 71.32352539 24.40795898 83.53352539 24.40795898 96.11352539 C19.97358398 96.13415039 15.53920898 96.15477539 10.97045898 96.17602539 C9.56997314 96.18512939 8.1694873 96.1942334 6.7265625 96.20361328 C5.6327124 96.20611084 4.5388623 96.2086084 3.41186523 96.21118164 C2.28594971 96.21641846 1.16003418 96.22165527 0 96.22705078 C-2.59204102 96.11352539 -2.59204102 96.11352539 -3.59204102 95.11352539 C-3.69262345 92.1969491 -3.72819312 89.30401594 -3.72143555 86.38696289 C-3.72318787 85.47158752 -3.72494019 84.55621216 -3.72674561 83.61309814 C-3.73116562 80.5715549 -3.72822561 77.53006928 -3.72485352 74.48852539 C-3.72552651 72.38484689 -3.7264965 70.28116847 -3.72775269 68.17749023 C-3.72922986 63.7622809 -3.72707447 59.34709176 -3.72241211 54.93188477 C-3.71671481 49.25859978 -3.71999371 43.5853621 -3.72598457 37.91207886 C-3.72958965 33.56623983 -3.72845185 29.22041211 -3.72585678 24.87457275 C-3.72518736 22.78208409 -3.72601644 20.68959442 -3.72833633 18.59710693 C-3.73086199 15.67807273 -3.72702349 12.75911627 -3.72143555 9.84008789 C-3.72345978 8.96628479 -3.72548401 8.09248169 -3.72756958 7.19219971 C-3.70250386 0.16216109 -3.70250386 0.16216109 0 0 Z " fill="#FFFFFF" transform="translate(766.592041015625,6.886474609375)"/>
<path d="M0 0 C7.57647602 -0.07473004 15.15273258 -0.12887476 22.72949219 -0.16479492 C25.30147036 -0.17978577 27.8734234 -0.20018528 30.4453125 -0.22631836 C68.23035948 -0.60035512 68.23035948 -0.60035512 79.8125 9.4375 C84.78220152 15.25915035 86.3261161 20.09947736 86.21484375 27.62890625 C85.50146126 35.50205482 81.43492279 40.56507721 76 46 C76.60328125 46.43570313 77.2065625 46.87140625 77.828125 47.3203125 C85.41624287 52.9746842 89.36178421 57.60077138 90.8125 67.12109375 C91.19686881 73.0227565 89.98454254 77.95215151 87.4375 83.25 C79.71796041 91.95922415 69.31078117 94.96012861 58 96 C53.54261147 96.13570443 49.08799657 96.11632862 44.62890625 96.09765625 C43.35144028 96.0962413 42.0739743 96.09482635 40.75779724 96.09336853 C37.38275254 96.08873516 34.00777703 96.07977023 30.63275146 96.06866455 C27.18030389 96.05838426 23.72784913 96.05385681 20.27539062 96.04882812 C13.51690569 96.03782466 6.7584623 96.02057322 0 96 C0 89.4 0 82.8 0 76 C1.47275391 75.98018066 2.94550781 75.96036133 4.46289062 75.93994141 C9.94971223 75.86361908 15.43627784 75.77494298 20.92285156 75.68261719 C23.29324269 75.64443726 25.66368959 75.6095656 28.03417969 75.578125 C31.45007193 75.5322356 34.86558389 75.47428038 38.28125 75.4140625 C39.33364868 75.40251129 40.38604736 75.39096008 41.47033691 75.37905884 C48.51107698 75.23922211 54.9798937 75.0134042 61 71 C62.08165507 67.52325155 62.25778001 65.66719531 60.9375 62.25 C57.98423963 58.82040731 54.88654833 58.15231837 50.41387939 57.79119873 C47.21515496 57.67228778 44.0210795 57.61870479 40.8203125 57.5859375 C39.6524118 57.56657135 38.48451111 57.5472052 37.28121948 57.5272522 C33.56255322 57.46762339 29.84385572 57.42113726 26.125 57.375 C23.59894507 57.33680491 21.07290295 57.29775229 18.546875 57.2578125 C12.36468776 57.16193532 6.18243956 57.07784216 0 57 C0 50.73 0 44.46 0 38 C2.12610718 37.970271 2.12610718 37.970271 4.29516602 37.93994141 C9.57138344 37.86366939 14.84733285 37.77498526 20.12329102 37.68261719 C22.40351049 37.64441659 24.68378839 37.60954838 26.96411133 37.578125 C30.24842154 37.53228076 33.53233262 37.47431786 36.81640625 37.4140625 C37.83021866 37.40251129 38.84403107 37.39096008 39.88856506 37.37905884 C45.26182837 37.26789934 49.97598559 36.99451486 55 35 C57.23551759 31.64672361 57.17283528 31.09256343 56.625 27.3125 C56.41666667 25.875 56.20833333 24.4375 56 23 C48.64371647 21.46159704 41.59053942 20.67944483 34.08203125 20.5859375 C33.09877365 20.56657135 32.11551605 20.5472052 31.10246277 20.5272522 C28.00589279 20.46815423 24.90928421 20.42135399 21.8125 20.375 C19.69464652 20.3367558 17.57680753 20.29770049 15.45898438 20.2578125 C10.30607111 20.1610063 5.15328527 20.08088593 0 20 C0 13.4 0 6.8 0 0 Z " fill="#FFFFFF" transform="translate(141,7)"/>
<path d="M0 0 C6.56146155 -0.04626177 13.12234235 -0.08598072 19.68383789 -0.10986328 C21.90944349 -0.1198342 24.13503628 -0.13341579 26.3605957 -0.15087891 C69.80984057 -0.48292528 69.80984057 -0.48292528 86.9296875 15.83984375 C97.26926567 26.68974445 98.39962243 38.86874459 98.2109375 53.09765625 C97.87222604 64.1894113 93.31218257 73.63492201 85.75 81.75 C72.88321837 93.68969911 56.81000213 96.17671104 39.94140625 96.09765625 C38.22497169 96.09553383 38.22497169 96.09553383 36.47386169 96.09336853 C32.83671399 96.08779301 29.19962895 96.07524498 25.5625 96.0625 C23.0891936 96.05748184 20.61588623 96.05291948 18.14257812 96.04882812 C12.0950088 96.0386846 6.04757415 96.01910431 0 96 C0 80.16 0 64.32 0 48 C9.24 48 18.48 48 28 48 C28 56.58 28 65.16 28 74 C31.96 73.7525 35.92 73.505 40 73.25 C41.23234375 73.18200195 42.4646875 73.11400391 43.734375 73.04394531 C51.33006603 72.50034178 57.17770201 71.29839228 63.0234375 66.25390625 C68.19151156 59.78634535 70.50543883 53.64807833 69.75390625 45.25 C68.40135056 36.44043371 65.13191198 31.23977207 58 26 C51.14029581 22.5701479 43.62940477 22.8092449 36.1328125 22.68359375 C35.09808807 22.66281265 34.06336365 22.64203156 32.99728394 22.62062073 C29.70658726 22.5554718 26.41581383 22.49640191 23.125 22.4375 C20.88801304 22.3942818 18.65103371 22.35066647 16.4140625 22.30664062 C10.94278571 22.19908214 5.47144695 22.09975097 0 22 C0 14.74 0 7.48 0 0 Z " fill="#FFFFFF" transform="translate(252,7)"/>
<path d="M0 0 C9.24 0 18.48 0 28 0 C36.98356094 19.86264316 45.96111062 39.72224806 54.55810547 59.75585938 C58.25824108 68.35971737 62.09459738 76.89301306 66.10742188 85.35595703 C66.68266602 86.59128174 66.68266602 86.59128174 67.26953125 87.8515625 C67.60573486 88.56135254 67.94193848 89.27114258 68.28833008 90.00244141 C69 92 69 92 69 96 C59.76 96 50.52 96 41 96 C36.89224297 87.28530025 33.14906524 78.55366936 29.6875 69.5625 C25.79905104 59.54146528 21.82329162 49.56686878 17.64135742 39.66430664 C17.29177979 38.82504639 16.94220215 37.98578613 16.58203125 37.12109375 C16.12147339 36.02945923 16.12147339 36.02945923 15.65161133 34.91577148 C15 33 15 33 15 30 C14.34 30 13.68 30 13 30 C12.8275325 30.53607376 12.655065 31.07214752 12.47737122 31.62446594 C10.5794584 37.43109662 8.45304718 43.11611842 6.19921875 48.79296875 C5.84036087 49.70146072 5.48150299 50.6099527 5.11177063 51.54597473 C4.35571585 53.45827863 3.59847026 55.37011212 2.84008789 57.28149414 C1.69802099 60.16097357 0.56064308 63.04227182 -0.57617188 65.92382812 C-4.5678711 76.01886518 -8.66218702 86.04854669 -13 96 C-22.24 96 -31.48 96 -41 96 C-40.30619597 92.53097983 -39.81580358 90.24244098 -38.44384766 87.16748047 C-37.96433907 86.08258331 -37.96433907 86.08258331 -37.47514343 84.97576904 C-36.94990837 83.80827118 -36.94990837 83.80827118 -36.4140625 82.6171875 C-36.0449324 81.78568176 -35.67580231 80.95417603 -35.29548645 80.09747314 C-34.07661765 77.35456389 -32.8507597 74.61483585 -31.625 71.875 C-30.7755824 69.96622357 -29.92671318 68.05720302 -29.07836914 66.14794922 C-27.30099686 62.1490955 -25.52121854 58.15132559 -23.73974609 54.15429688 C-19.70631913 45.09999527 -15.69945391 36.03395474 -11.69378662 26.96734619 C-10.453469 24.16112984 -9.21150678 21.35564616 -7.96923828 18.55029297 C-7.20731481 16.82781804 -6.44543117 15.10532549 -5.68359375 13.3828125 C-5.33859329 12.60448059 -4.99359283 11.82614868 -4.63813782 11.02423096 C-4.31854599 10.30096619 -3.99895416 9.57770142 -3.66967773 8.83251953 C-3.39389389 8.20942902 -3.11811005 7.5863385 -2.83396912 6.94436646 C-1.84845373 4.6466758 -0.92852296 2.3213074 0 0 Z " fill="#FFFFFF" transform="translate(57,7)"/>
<path d="M0 0 C8.91 0 17.82 0 27 0 C32.91655858 11.59325668 38.32366939 23.31109417 43.5 35.25 C45.06839457 38.85239978 46.63953025 42.45360104 48.2109375 46.0546875 C48.60562225 46.96018341 49.00030701 47.86567932 49.4069519 48.7986145 C52.14527985 55.07169599 54.92342417 61.32594703 57.7265625 67.5703125 C58.10065247 68.40502075 58.47474243 69.239729 58.86016846 70.09973145 C60.29982687 73.31136844 61.73953587 76.52292373 63.19018555 79.72961426 C64.17583918 81.9087765 65.15491121 84.09078805 66.1328125 86.2734375 C66.42564117 86.91523956 66.71846985 87.55704163 67.02017212 88.21829224 C68.26594397 91.01260617 69 92.89973945 69 96 C59.76 96 50.52 96 41 96 C35.375 84.75 35.375 84.75 33.4128418 79.81591797 C32.97276291 78.71553192 32.53268402 77.61514587 32.07926941 76.48141479 C31.62385269 75.32996979 31.16843597 74.17852478 30.69921875 72.9921875 C30.2179805 71.7855545 29.73674225 70.57892151 29.24092102 69.33572388 C27.97620059 66.16448532 26.71667614 62.99120938 25.45831299 59.81744385 C24.16746734 56.56452098 22.87159333 53.31360268 21.57617188 50.0625 C19.04592423 43.71025955 16.52117352 37.3558472 14 31 C12.0134462 33.97983069 10.81049685 36.71426795 9.47802734 40.03198242 C9.23389603 40.63714188 8.98976471 41.24230133 8.73823547 41.86579895 C7.93423902 43.86107271 7.1350722 45.85824339 6.3359375 47.85546875 C5.77858651 49.24135573 5.2209347 50.62712177 4.66299438 52.01277161 C3.19686129 55.65625742 1.734819 59.30137125 0.27362061 62.94683838 C-1.21876637 66.66802416 -2.71501366 70.38765685 -4.2109375 74.10742188 C-7.1444072 81.40343379 -10.07319922 88.70131028 -13 96 C-22.24 96 -31.48 96 -41 96 C-39.87506248 89.25037488 -39.87506248 89.25037488 -38.35205078 85.87036133 C-38.01236771 85.10715576 -37.67268463 84.3439502 -37.32270813 83.55761719 C-36.95066757 82.74067383 -36.57862701 81.92373047 -36.1953125 81.08203125 C-35.60818733 79.76996704 -35.60818733 79.76996704 -35.00920105 78.43139648 C-33.72077831 75.55555175 -32.4228455 72.68410297 -31.125 69.8125 C-30.22862819 67.81569944 -29.33304922 65.8185428 -28.43823242 63.82104492 C-27.04802496 60.71795048 -25.65729724 57.61510075 -24.26402283 54.51338196 C-19.22908335 43.30228607 -14.26932442 32.05829389 -9.3125 20.8125 C-7.72596086 17.21453428 -6.13857015 13.61694558 -4.55078125 10.01953125 C-4.20379684 9.2320752 -3.85681244 8.44461914 -3.49931335 7.63330078 C-1.11269734 2.22539467 -1.11269734 2.22539467 0 0 Z " fill="#FFFFFF" transform="translate(680,7)"/>
<path d="M0 0 C9.24 0 18.48 0 28 0 C28 24.42 28 48.84 28 74 C42.85 74 57.7 74 73 74 C73 81.26 73 88.52 73 96 C48.91 96 24.82 96 0 96 C0 64.32 0 32.64 0 0 Z " fill="#FFFFFF" transform="translate(559,7)"/>
<path d="M0 0 C9.24 0 18.48 0 28 0 C28 24.42 28 48.84 28 74 C42.85 74 57.7 74 73 74 C73 81.26 73 88.52 73 96 C48.91 96 24.82 96 0 96 C0 64.32 0 32.64 0 0 Z " fill="#FFFFFF" transform="translate(469,7)"/>
<path d="M0 0 C25.08 0 50.16 0 76 0 C76 7.26 76 14.52 76 22 C50.92 22 25.84 22 0 22 C0 14.74 0 7.48 0 0 Z " fill="#FFFFFF" transform="translate(371,81)"/>
<path d="M0 0 C25.08 0 50.16 0 76 0 C76 7.26 76 14.52 76 22 C50.92 22 25.84 22 0 22 C0 14.74 0 7.48 0 0 Z " fill="#FFFFFF" transform="translate(371,7)"/>
<path d="M0 0 C25.08 0 50.16 0 76 0 C76 6.93 76 13.86 76 21 C50.92 21 25.84 21 0 21 C0 14.07 0 7.14 0 0 Z " fill="#FFFFFF" transform="translate(371,44)"/>
</svg>
